<?xml version="1.0" encoding="UTF-8" standalone="no"?>
<!-- Created with Inkscape (http://www.inkscape.org/) -->

<svg
   width="93mm"
   height="98mm"
   viewBox="0 0 93 98"
   version="1.1"
   id="svg1"
   inkscape:export-filename="Mis Iconos\telefono.svg"
   inkscape:export-xdpi="96"
   inkscape:export-ydpi="96"
   xml:space="preserve"
   inkscape:version="1.3.2 (091e20e, 2023-11-25, custom)"
   sodipodi:docname="dibujo.svg"
   xmlns:inkscape="http://www.inkscape.org/namespaces/inkscape"
   xmlns:sodipodi="http://sodipodi.sourceforge.net/DTD/sodipodi-0.dtd"
   xmlns="http://www.w3.org/2000/svg"
   xmlns:svg="http://www.w3.org/2000/svg"><sodipodi:namedview
     id="namedview1"
     pagecolor="#ffffff"
     bordercolor="#111111"
     borderopacity="1"
     inkscape:showpageshadow="0"
     inkscape:pageopacity="0"
     inkscape:pagecheckerboard="1"
     inkscape:deskcolor="#d1d1d1"
     inkscape:document-units="mm"
     inkscape:export-bgcolor="#ffffff00"
     inkscape:zoom="0.23222166"
     inkscape:cx="245.45514"
     inkscape:cy="204.54595"
     inkscape:window-width="1366"
     inkscape:window-height="697"
     inkscape:window-x="-8"
     inkscape:window-y="-8"
     inkscape:window-maximized="1"
     inkscape:current-layer="layer4" /><defs
     id="defs1"><linearGradient
       id="swatch106"
       inkscape:swatch="solid"><stop
         style="stop-color:#000000;stop-opacity:1;"
         offset="0"
         id="stop106" /></linearGradient><linearGradient
       id="swatch44"
       inkscape:swatch="solid"><stop
         style="stop-color:#f5ab00;stop-opacity:1;"
         offset="0"
         id="stop44" /></linearGradient><linearGradient
       id="swatch43"
       inkscape:swatch="solid"><stop
         style="stop-color:#f5ab00;stop-opacity:1;"
         offset="0"
         id="stop43" /></linearGradient><linearGradient
       id="swatch29"
       inkscape:swatch="solid"><stop
         style="stop-color:#e9e9e9;stop-opacity:1;"
         offset="0"
         id="stop30" /></linearGradient><linearGradient
       id="swatch19"
       inkscape:swatch="solid"><stop
         style="stop-color:#f0f0f0;stop-opacity:1;"
         offset="0"
         id="stop19" /></linearGradient></defs><g
     inkscape:groupmode="layer"
     id="layer3"
     inkscape:label="Capa Carrito de la compra"><g
       id="g127"
       transform="matrix(1.1052096,0,0,1.0760793,-18.27235,-98.368158)"><ellipse
         style="display:inline;fill:#000000;fill-opacity:1;fill-rule:nonzero;stroke:#bc84d0;stroke-width:7.37849;stroke-linecap:butt;stroke-linejoin:round;stroke-dasharray:none;stroke-opacity:1;paint-order:stroke fill markers"
         id="path34-6-76"
         cx="59.190243"
         cy="137.40466"
         rx="37.614441"
         ry="41.119804" /><path
         d="m 80.287765,117.21909 h -35.37571 l -0.544561,-4.7296 c -0.356063,-3.16163 -2.576207,-5.55214 -5.194297,-5.55214 h -3.686283 v 2.57044 h 3.686283 c 1.570855,0 2.890373,1.43945 3.120766,3.31586 l 4.230843,37.39984 c 0.356059,3.16163 2.576199,5.55214 5.194299,5.55214 h 23.58381 v -2.57044 h -23.58381 c -1.57085,0 -2.89037,-1.43944 -3.12077,-3.31586 l -0.50267,-4.39545 h 27.56331 l 4.60785,-28.27479 z m -32.46439,25.70436 -2.618089,-23.13392 h 32.527219 l -3.77005,23.13392 z m 2.34582,15.42261 c -2.30393,0 -4.188955,2.31339 -4.188955,5.14087 0,2.82748 1.885025,5.14087 4.188955,5.14087 2.30392,0 4.18895,-2.31339 4.18895,-5.14087 0,-2.82748 -1.88503,-5.14087 -4.18895,-5.14087 z m 0,7.71131 c -1.15196,0 -2.09448,-1.1567 -2.09448,-2.57044 0,-1.41373 0.94252,-2.57043 2.09448,-2.57043 1.15196,0 2.09448,1.1567 2.09448,2.57043 0,1.41374 -0.94252,2.57044 -2.09448,2.57044 z m 18.85029,-7.71131 c -2.30392,0 -4.18895,2.31339 -4.18895,5.14087 0,2.82748 1.88503,5.14087 4.18895,5.14087 2.30393,0 4.18895,-2.31339 4.18895,-5.14087 0,-2.82748 -1.88502,-5.14087 -4.18895,-5.14087 z m 0,7.71131 c -1.15196,0 -2.09448,-1.1567 -2.09448,-2.57044 0,-1.41373 0.94252,-2.57043 2.09448,-2.57043 1.15196,0 2.09447,1.1567 2.09447,2.57043 0,1.41374 -0.94251,2.57044 -2.09447,2.57044 z m -29.867236,-43.6974 h -7.83334 v -2.57044 h 7.540115 z m 1.172907,10.28174 h -9.006247 v -2.57044 h 8.713022 z m 0.87968,7.71131 0.293225,2.57043 H 31.318909 v -2.57043 h 9.864979 z"
         id="path1-2"
         style="fill:#ececec;stroke-width:2.32028" /></g></g></svg>
