<?xml version="1.0" encoding="UTF-8" standalone="no"?>
<!-- Created with Inkscape (http://www.inkscape.org/) -->

<svg
   width="93mm"
   height="98mm"
   viewBox="0 0 93 98"
   version="1.1"
   id="svg1"
   inkscape:export-filename="Mis Iconos\email.svg"
   inkscape:export-xdpi="96"
   inkscape:export-ydpi="96"
   xml:space="preserve"
   inkscape:version="1.3.2 (091e20e, 2023-11-25, custom)"
   sodipodi:docname="dibujo.svg"
   xmlns:inkscape="http://www.inkscape.org/namespaces/inkscape"
   xmlns:sodipodi="http://sodipodi.sourceforge.net/DTD/sodipodi-0.dtd"
   xmlns="http://www.w3.org/2000/svg"
   xmlns:svg="http://www.w3.org/2000/svg"><sodipodi:namedview
     id="namedview1"
     pagecolor="#ffffff"
     bordercolor="#111111"
     borderopacity="1"
     inkscape:showpageshadow="0"
     inkscape:pageopacity="0"
     inkscape:pagecheckerboard="1"
     inkscape:deskcolor="#d1d1d1"
     inkscape:document-units="mm"
     inkscape:export-bgcolor="#ffffff00"
     inkscape:zoom="0.23222166"
     inkscape:cx="245.45514"
     inkscape:cy="204.54595"
     inkscape:window-width="1366"
     inkscape:window-height="697"
     inkscape:window-x="-8"
     inkscape:window-y="-8"
     inkscape:window-maximized="1"
     inkscape:current-layer="layer4" /><defs
     id="defs1"><linearGradient
       id="swatch106"
       inkscape:swatch="solid"><stop
         style="stop-color:#000000;stop-opacity:1;"
         offset="0"
         id="stop106" /></linearGradient><linearGradient
       id="swatch44"
       inkscape:swatch="solid"><stop
         style="stop-color:#f5ab00;stop-opacity:1;"
         offset="0"
         id="stop44" /></linearGradient><linearGradient
       id="swatch43"
       inkscape:swatch="solid"><stop
         style="stop-color:#f5ab00;stop-opacity:1;"
         offset="0"
         id="stop43" /></linearGradient><linearGradient
       id="swatch29"
       inkscape:swatch="solid"><stop
         style="stop-color:#e9e9e9;stop-opacity:1;"
         offset="0"
         id="stop30" /></linearGradient><linearGradient
       id="swatch19"
       inkscape:swatch="solid"><stop
         style="stop-color:#f0f0f0;stop-opacity:1;"
         offset="0"
         id="stop19" /></linearGradient></defs><ellipse
     style="display:inline;fill:#000000;fill-opacity:1;fill-rule:nonzero;stroke:#bc84d0;stroke-width:8.04659;stroke-linecap:butt;stroke-linejoin:round;stroke-dasharray:none;stroke-opacity:1;paint-order:stroke fill markers"
     id="path34-6-2"
     cx="46.642345"
     cy="48.713596"
     rx="41.571842"
     ry="44.248169" /><g
     inkscape:groupmode="layer"
     id="layer10"
     inkscape:label="Caja de Telefono"
     transform="translate(250.6585,-20.508423)"><g
       id="g7"
       transform="matrix(0.85524487,0,0,0.86011552,-243.72702,26.589066)"><path
         d="m 47.947142,19.45993 a 2.8873283,2.8872884 0 0 1 2.887328,-2.887288 28.905044,28.904644 0 0 1 28.873286,28.872884 2.887329,2.8872891 0 0 1 -5.774658,0 A 23.124613,23.124293 0 0 0 50.83447,22.347219 2.8873283,2.8872884 0 0 1 47.947142,19.45993 Z m 2.887328,14.436443 a 11.549314,11.549154 0 0 1 11.549314,11.549153 2.8873286,2.8872887 0 0 0 5.774657,0 17.341294,17.341054 0 0 0 -17.323971,-17.32373 2.8873284,2.8872885 0 0 0 0,5.774577 z m 26.254479,31.006596 a 8.950718,8.9505943 0 0 1 0,12.64054 l -2.627471,3.02877 C 50.814259,103.2115 -6.7301946,45.682284 15.55998,21.960322 l 3.320428,-2.887288 a 8.8958585,8.8957355 0 0 1 12.49347,0.115491 c 0.08951,0.08951 5.439726,7.039209 5.439726,7.039209 a 8.950718,8.9505943 0 0 1 -0.02021,12.363369 l -3.343526,4.203892 A 36.902943,36.902433 0 0 0 53.46194,62.847209 l 4.229936,-3.36369 a 8.950718,8.9505943 0 0 1 12.36065,-0.0173 c 0,0 6.946915,5.34726 7.036423,5.43677 z m -3.972966,4.19811 c 0,0 -6.909379,-5.31549 -6.998882,-5.405 a 3.1760612,3.1760173 0 0 0 -4.472474,0 c -0.07796,0.0808 -5.901698,4.72071 -5.901698,4.72071 a 2.8873283,2.8872884 0 0 1 -2.826695,0.43887 43.335911,43.335312 0 0 1 -25.469123,-25.431235 2.8873283,2.8872884 0 0 1 0.418663,-2.887288 c 0,0 4.639936,-5.826548 4.717894,-5.901618 a 3.1760612,3.1760173 0 0 0 0,-4.472409 c -0.08951,-0.08662 -5.405078,-7.001675 -5.405078,-7.001675 a 3.1760612,3.1760173 0 0 0 -4.359867,0.112605 l -3.320427,2.887288 C 3.2079894,45.748691 53.075037,92.849029 70.240202,76.628239 l 2.630357,-3.03165 a 3.2366951,3.2366503 0 0 0 0.245424,-4.49551 z"
         id="path1-6"
         style="fill:#ffffff;stroke-width:2.88731" /></g></g></svg>
