<?xml version="1.0" encoding="UTF-8" standalone="no"?>
<!-- Created with Inkscape (http://www.inkscape.org/) -->

<svg
   width="93mm"
   height="98mm"
   viewBox="0 0 93 98"
   version="1.1"
   id="svg1"
   inkscape:export-filename="Mis Iconos\menú.svg"
   inkscape:export-xdpi="96"
   inkscape:export-ydpi="96"
   xml:space="preserve"
   inkscape:version="1.3.2 (091e20e, 2023-11-25, custom)"
   sodipodi:docname="dibujo.svg"
   xmlns:inkscape="http://www.inkscape.org/namespaces/inkscape"
   xmlns:sodipodi="http://sodipodi.sourceforge.net/DTD/sodipodi-0.dtd"
   xmlns="http://www.w3.org/2000/svg"
   xmlns:svg="http://www.w3.org/2000/svg"><sodipodi:namedview
     id="namedview1"
     pagecolor="#ffffff"
     bordercolor="#111111"
     borderopacity="1"
     inkscape:showpageshadow="0"
     inkscape:pageopacity="0"
     inkscape:pagecheckerboard="1"
     inkscape:deskcolor="#d1d1d1"
     inkscape:document-units="mm"
     inkscape:export-bgcolor="#ffffff00"
     inkscape:zoom="0.23222166"
     inkscape:cx="245.45514"
     inkscape:cy="204.54595"
     inkscape:window-width="1366"
     inkscape:window-height="697"
     inkscape:window-x="-8"
     inkscape:window-y="-8"
     inkscape:window-maximized="1"
     inkscape:current-layer="layer4" /><defs
     id="defs1"><linearGradient
       id="swatch106"
       inkscape:swatch="solid"><stop
         style="stop-color:#000000;stop-opacity:1;"
         offset="0"
         id="stop106" /></linearGradient><linearGradient
       id="swatch44"
       inkscape:swatch="solid"><stop
         style="stop-color:#f5ab00;stop-opacity:1;"
         offset="0"
         id="stop44" /></linearGradient><linearGradient
       id="swatch43"
       inkscape:swatch="solid"><stop
         style="stop-color:#f5ab00;stop-opacity:1;"
         offset="0"
         id="stop43" /></linearGradient><linearGradient
       id="swatch29"
       inkscape:swatch="solid"><stop
         style="stop-color:#e9e9e9;stop-opacity:1;"
         offset="0"
         id="stop30" /></linearGradient><linearGradient
       id="swatch19"
       inkscape:swatch="solid"><stop
         style="stop-color:#f0f0f0;stop-opacity:1;"
         offset="0"
         id="stop19" /></linearGradient></defs><g
     inkscape:groupmode="layer"
     id="layer9"
     inkscape:label="Capa de Usuario"
     transform="translate(141.37511,151.10708)"><g
       id="g6"
       transform="translate(-138.57127,-152.26727)"><g
         id="g1"
         transform="matrix(2.5586863,0,0,2.7011059,16.009394,17.43359)"
         style="fill:#ffffff"
         inkscape:label="g1"><ellipse
           style="display:inline;fill:#000000;fill-opacity:1;fill-rule:nonzero;stroke:#bc84d0;stroke-width:3.06078;stroke-linecap:butt;stroke-linejoin:round;stroke-dasharray:none;stroke-opacity:1;paint-order:stroke fill markers"
           id="path34-6-6"
           cx="10.680765"
           cy="12.343865"
           rx="16.247339"
           ry="16.381502" /><path
           d="m 22.666033,10.578189 h -2 V 8.5781888 a 1,1 0 0 0 -2,0 v 2.0000002 h -2 a 1,1 0 0 0 0,2 h 2 v 2 a 1,1 0 0 0 2,0 v -2 h 2 a 1,1 0 0 0 0,-2 z"
           id="path1-0"
           style="fill:#ffffff" /><path
           d="m 8.4433878,11.367284 a 6,6 0 1 0 -6,-6.0000009 6.006,6.006 0 0 0 6,6.0000009 z m 0,-10.0000009 a 4,4 0 1 1 -4,4 4,4 0 0 1 4,-4 z"
           id="path2"
           style="fill:#ffffff" /><path
           d="m 8.4433878,12.945472 a 9.01,9.01 0 0 0 -8.99999997,9 1,1 0 0 0 1.99999997,0 7.0000001,7.0000001 0 0 1 14.0000002,0 1,1 0 0 0 2,0 9.01,9.01 0 0 0 -9.0000002,-9 z"
           id="path3"
           style="fill:#ffffff" /></g></g></g></svg>
